<svg version="1.1" xmlns="http://www.w3.org/2000/svg" style="display: block;" viewBox="0 0 2048 2048" width="1024" height="1024" preserveAspectRatio="none" xmlns:c2pa="http://c2pa.org/manifest"><metadata><c2pa:manifest>AAAMZ2p1bWIAAAAeanVtZGMycGEAEQAQgAAAqgA4m3EDYzJwYQAAAAxBanVtYgAAAEdqdW1kYzJtYQARABCAAACqADibcQN1cm46YzJwYTpmN2Q2ZGU5YS0yZmRlLTQ3NzctYjMyYS01YWVmNjczNmVmNTMAAAAB4mp1bWIAAAApanVtZGMyYXMAEQAQgAAAqgA4m3EDYzJwYS5hc3NlcnRpb25zAAAAAO1qdW1iAAAAQWp1bWRjYm9yABEAEIAAAKoAOJtxE2MycGEuYWN0aW9ucy52MgAAAAAYYzJzaJ/TQ/Bk7V01paswpPc08FAAAACkY2JvcqFnYWN0aW9uc4GjZmFjdGlvbmxjMnBhLmNyZWF0ZWRxZGlnaXRhbFNvdXJjZVR5cGV4Rmh0dHA6Ly9jdi5pcHRjLm9yZy9uZXdzY29kZXMvZGlnaXRhbHNvdXJjZXR5cGUvdHJhaW5lZEFsZ29yaXRobWljTWVkaWFrZGVzY3JpcHRpb252Q3JlYXRlZCBieSBSZWNyYWZ0IEFJLgAAAMRqdW1iAAAAQGp1bWRjYm9yABEAEIAAAKoAOJtxE2MycGEuaGFzaC5kYXRhAAAAABhjMnNoe4vomovRY4LEH+YsW24YHQAAAHxjYm9ypWpleGNsdXNpb25zgaJlc3RhcnQY22ZsZW5ndGgZEIxkbmFtZW5qdW1iZiBtYW5pZmVzdGNhbGdmc2hhMjU2ZGhhc2hYIIkBsqBbYqnr9i0P56rGCZig6hF3+C//Yb7mkxYDycmaY3BhZEkAAAAAAAAAAAAAAAI0anVtYgAAACdqdW1kYzJjbAARABCAAACqADibcQNjMnBhLmNsYWltLnYyAAAAAgVjYm9ypmppbnN0YW5jZUlEeCx4bXA6aWlkOjU4M2E0MmU5LWJmOGUtNDE5OC04ODZjLWQyM2Q3NTUzZjEwZnRjbGFpbV9nZW5lcmF0b3JfaW5mb6NkbmFtZWpyZWNyYWZ0LmFpZ3ZlcnNpb254KDgxY2U4MmUyYzVjM2NiZmJlOGM2ZmJlMTc5ZDVmOGQ5MWM0MDljZTF3b3JnLmNvbnRlbnRhdXRoLmMycGFfcnNmMC45MC43aXNpZ25hdHVyZXhNc2VsZiNqdW1iZj0vYzJwYS91cm46YzJwYTpmN2Q2ZGU5YS0yZmRlLTQ3NzctYjMyYS01YWVmNjczNmVmNTMvYzJwYS5zaWduYXR1cmVyY3JlYXRlZF9hc3NlcnRpb25zgqJjdXJseCpzZWxmI2p1bWJmPWMycGEuYXNzZXJ0aW9ucy9jMnBhLmFjdGlvbnMudjJkaGFzaFgg5sfej21PJQC7486llcOjIVfP3Zk7FPC2+WWX6HYiPbKiY3VybHgpc2VsZiNqdW1iZj1jMnBhLmFzc2VydGlvbnMvYzJwYS5oYXNoLmRhdGFkaGFzaFggyFh6j0j2Ikwli7Yagz3HfuqS2Z4tQ6GFRpSv5HfKyYRoZGM6dGl0bGV4GlJlY3JhZnQgQUkgR2VuZXJhdGVkIEltYWdlY2FsZ2ZzaGEyNTYAAAfcanVtYgAAAChqdW1kYzJjcwARABCAAACqADibcQNjMnBhLnNpZ25hdHVyZQAAAAesY2JvctKEWQOwogEmGCGCWQHnMIIB4zCCAYmgAwIBAgIJALfeWmNDUW56MAoGCCqGSM49BAMCMEAxHzAdBgNVBAMMFlJlY3JhZnQgU3RhZ2luZyBEZXYgQ0ExEDAOBgNVBAoMB1JlY3JhZnQxCzAJBgNVBAYTAlVTMB4XDTI2MDYxMjE5NDM1MFoXDTI3MDYxMjE5NDM1MFowNzELMAkGA1UEBhMCVVMxEzARBgNVBAoTClJlY3JhZnQgQUkxEzARBgNVBAMTCnJlY3JhZnQuYWkwWTATBgcqhkjOPQIBBggqhkjOPQMBBwNCAARKaTVbACsg/DeG3LeOxYdID/VA6EFG73E6Oknb+KIiCFJygRUz4ueN2z/t2qYb6CIUvS8RvgOiiClfoqsYtw81o3UwczAMBgNVHRMBAf8EAjAAMA4GA1UdDwEB/wQEAwIGwDATBgNVHSUEDDAKBggrBgEFBQcDBDAdBgNVHQ4EFgQULzHpBen96SL1y4IPHa8MkMshXf0wHwYDVR0jBBgwFoAUAgsqOBrKqpdK//m/kxZo7ZR4ebcwCgYIKoZIzj0EAwIDSAAwRQIgU8hKW0aXvvk8SQgVFNkax69Ym9ae8GsT2RZTQw+B51ACIQC0D4BkEoRD4N0r2ZRkNy0HZaW3WICy/QZGN95ilF4yzFkBvTCCAbkwggFfoAMCAQICCQCc+Wg7T6ATbzAKBggqhkjOPQQDAjBAMR8wHQYDVQQDDBZSZWNyYWZ0IFN0YWdpbmcgRGV2IENBMRAwDgYDVQQKDAdSZWNyYWZ0MQswCQYDVQQGEwJVUzAeFw0yNjA2MTIxOTQwMTZaFw0yODA2MTExOTQwMTZaMEAxHzAdBgNVBAMMFlJlY3JhZnQgU3RhZ2luZyBEZXYgQ0ExEDAOBgNVBAoMB1JlY3JhZnQxCzAJBgNVBAYTAlVTMFkwEwYHKoZIzj0CAQYIKoZIzj0DAQcDQgAEQ9IQBlcVbKaKPYrQSfOhL/00s7xUDC7RinIuLO/I1k99y9yh6oWF9kPxaP+tx1v1PeOL3yrVquJ730H0ZGiDyqNCMEAwDwYDVR0TAQH/BAUwAwEB/zAOBgNVHQ8BAf8EBAMCAYYwHQYDVR0OBBYEFAILKjgayqqXSv/5v5MWaO2UeHm3MAoGCCqGSM49BAMCA0gAMEUCIFQwNImLlYDeQhjgF+ZiqTbgcuzSqmOJw3Q2lQ/hu83FAiEA9O8cLm/xfoVLqB4jtdbuHzi3WL+p2RN+DRGkwpYswVuhY3BhZFkDpAAAAAAAAAAAAAAAAAAAAAAAAAAAAAAAAAAAAAAAAAAAAAAAAAAAAAAAAAAAAAAAAAAAAAAAAAAAAAAAAAAAAAAAAAAAAAAAAAAAAAAAAAAAAAAAAAAAAAAAAAAAAAAAAAAAAAAAAAAAAAAAAAAAAAAAAAAAAAAAAAAAAAAAAAAAAAAAAAAAAAAAAAAAAAAAAAAAAAAAAAAAAAAAAAAAAAAAAAAAAAAAAAAAAAAAAAAAAAAAAAAAAAAAAAAAAAAAAAAAAAAAAAAAAAAAAAAAAAAAAAAAAAAAAAAAAAAAAAAAAAAAAAAAAAAAAAAAAAAAAAAAAAAAAAAAAAAAAAAAAAAAAAAAAAAAAAAAAAAAAAAAAAAAAAAAAAAAAAAAAAAAAAAAAAAAAAAAAAAAAAAAAAAAAAAAAAAAAAAAAAAAAAAAAAAAAAAAAAAAAAAAAAAAAAAAAAAAAAAAAAAAAAAAAAAAAAAAAAAAAAAAAAAAAAAAAAAAAAAAAAAAAAAAAAAAAAAAAAAAAAAAAAAAAAAAAAAAAAAAAAAAAAAAAAAAAAAAAAAAAAAAAAAAAAAAAAAAAAAAAAAAAAAAAAAAAAAAAAAAAAAAAAAAAAAAAAAAAAAAAAAAAAAAAAAAAAAAAAAAAAAAAAAAAAAAAAAAAAAAAAAAAAAAAAAAAAAAAAAAAAAAAAAAAAAAAAAAAAAAAAAAAAAAAAAAAAAAAAAAAAAAAAAAAAAAAAAAAAAAAAAAAAAAAAAAAAAAAAAAAAAAAAAAAAAAAAAAAAAAAAAAAAAAAAAAAAAAAAAAAAAAAAAAAAAAAAAAAAAAAAAAAAAAAAAAAAAAAAAAAAAAAAAAAAAAAAAAAAAAAAAAAAAAAAAAAAAAAAAAAAAAAAAAAAAAAAAAAAAAAAAAAAAAAAAAAAAAAAAAAAAAAAAAAAAAAAAAAAAAAAAAAAAAAAAAAAAAAAAAAAAAAAAAAAAAAAAAAAAAAAAAAAAAAAAAAAAAAAAAAAAAAAAAAAAAAAAAAAAAAAAAAAAAAAAAAAAAAAAAAAAAAAAAAAAAAAAAAAAAAAAAAAAAAAAAAAAAAAAAAAAAAAAAAAAAAAAAAAAAAAAAAAAAAAAAAAAAAAAAAAAAAAAAAAAAAAAAAAAAAAAAAAAAAAAAAAAAAAAAAAAAAAAAAAAAAAAAAAAAAAAAAAAAAAAAAAAAAAAAAAAAAAAAAAAAAAAAAAAAAAAAAAAAAAAAAAAAAAAAAAAA9lhAkLpUsFtJriWuzGD8A72Q2eD/w2fWtBoDASGPAWejCIwDX9wIOGJ8W89tz4Ch00m6mpX1NZIyns89psdzoxNblQ==</c2pa:manifest></metadata>
<path transform="translate(0,0)" fill="rgb(255,255,255)" d="M 0 0 L 2048 0 L 2048 2048 L 0 2048 L 0 0 z"/>
<path transform="translate(0,0)" fill="rgb(0,39,76)" d="M 1154.83 974.303 C 1148.28 972.79 1126.49 964.808 1120.35 961.467 C 1101.96 951.452 1045.01 936.06 1032.3 922.528 C 1031.43 917.68 1033.03 911.656 1034.15 906.894 C 1048.57 845.418 1066.94 784.41 1083.27 723.398 C 1089.05 701.791 1119.18 582.234 1124.09 574.863 C 1127.45 569.818 1132.8 567.087 1138.74 566.306 C 1151.46 564.634 1165.52 565.827 1178.39 565.813 L 1260.89 565.773 L 1414.47 565.803 C 1437.91 565.807 1461.57 564.982 1484.98 565.632 C 1489.19 565.749 1499.37 565.944 1502.28 568.816 C 1510.31 576.758 1507.05 625.019 1507.03 638.578 C 1507.05 643.648 1507.04 648.717 1507 653.787 C 1507.07 675.456 1507.72 698.154 1506.51 719.814 C 1506.09 727.362 1498.81 734.282 1491.3 734.806 C 1470.55 735.66 1449.13 735.004 1428.33 735.001 L 1279.77 735.084 C 1275.39 751.663 1271.03 769.226 1266.2 785.604 C 1311.66 791.954 1357.78 789.218 1401.99 806.566 C 1445.57 823.663 1487.79 853.939 1515.86 891.442 C 1589.78 990.228 1569.73 1153.33 1470.09 1228.19 C 1427.61 1260.1 1375.57 1270.31 1324.55 1276.27 L 1320.63 1276.97 C 1246.54 1281.23 1176.62 1283.59 1109.36 1243.56 C 1069.57 1219.87 1036.81 1185.98 1014.47 1145.41 C 1008.86 1135.43 992.721 1104.93 1001.48 1096.82 C 1007.57 1091.2 1049.36 1085.25 1059.39 1083.41 L 1151.83 1066.52 C 1160.88 1099.83 1176.41 1127.57 1209.52 1142.36 C 1236.71 1154.5 1273.57 1155.57 1301.4 1144.79 C 1324.08 1136.1 1342.36 1118.74 1352.23 1096.55 C 1363.72 1070.54 1363.48 1035.02 1353.19 1008.7 C 1328.93 946.713 1240.82 935.828 1185.88 957.503 C 1175.03 961.787 1165.92 970.306 1154.83 974.303 z"/>
<path transform="translate(0,0)" fill="rgb(179,25,66)" d="M 1507.03 638.578 C 1507.05 643.648 1507.04 648.717 1507 653.787 C 1487.94 652.872 1462.96 653.251 1443.68 653.294 C 1443.52 648.305 1443.43 643.975 1443.44 638.979 C 1463.38 639.025 1487.44 639.529 1507.03 638.578 z"/>
<path transform="translate(0,0)" fill="rgb(255,203,5)" d="M 1355.3 1239.78 C 1358.44 1243.61 1361.28 1246.71 1364.69 1250.29 C 1346.16 1266.08 1344.69 1266.09 1324.55 1276.27 L 1320.63 1276.97 C 1317.29 1272.78 1316.06 1270.23 1313.35 1265.65 C 1328.47 1258.2 1332.88 1257 1347.44 1245.9 C 1350.08 1243.9 1352.7 1241.86 1355.3 1239.78 z"/>
<path transform="translate(0,0)" fill="rgb(255,203,5)" d="M 1207.61 638.508 C 1224.57 638.704 1241.19 638.33 1258.28 638.821 C 1258.31 642.32 1259.45 650.798 1256.88 653.04 C 1240.54 652.955 1217.52 653.672 1201.94 652.068 C 1203.01 648.976 1205.77 641.002 1207.61 638.508 z"/>
<path transform="translate(0,0)" fill="rgb(255,203,5)" d="M 1445.17 1109.57 L 1445.87 1109.82 C 1449.21 1110.97 1452.59 1112 1456.01 1112.91 C 1457.42 1113.28 1458.77 1113.62 1460.17 1114.01 C 1453.08 1134.46 1451.12 1141.15 1441.34 1160.53 C 1438.13 1161.34 1430.5 1156.74 1427.67 1155.07 C 1434.68 1139.98 1440.05 1125.39 1445.17 1109.57 z"/>
<path transform="translate(0,0)" fill="rgb(255,203,5)" d="M 1307.53 848.231 C 1324.73 853.089 1342.64 857.813 1358.33 866.676 C 1356.28 870.744 1354.21 874.353 1352.2 878.542 C 1351.46 878.879 1350.87 879.093 1350.07 878.72 C 1335.07 871.735 1320.08 866.447 1303.99 862.339 C 1305.13 858.293 1306.63 852.351 1307.53 848.231 z"/>
<path transform="translate(0,0)" fill="rgb(255,203,5)" d="M 1410.77 1181.62 C 1415.08 1184.54 1419.19 1187 1423.56 1190.02 C 1413.51 1202.38 1401.85 1216.06 1390.78 1227.41 C 1387.3 1228.74 1381.87 1221.41 1378.57 1218.54 C 1389.86 1206.25 1399.92 1193.45 1410.77 1181.62 z"/>
<path transform="translate(0,0)" fill="rgb(255,203,5)" d="M 1222 843.109 C 1239.65 842.968 1256.41 842.604 1274 844.151 C 1274 848.793 1273.98 853.435 1273.94 858.077 C 1256.58 857.852 1239.22 857.774 1221.86 857.842 C 1221.84 852.931 1221.88 848.019 1222 843.109 z"/>
<path transform="translate(0,0)" fill="rgb(255,203,5)" d="M 1192.09 680.873 C 1196.86 681.512 1201.71 682.114 1206.46 682.83 C 1201.82 699.315 1196.98 717.203 1191.66 733.458 C 1186.86 732.593 1182.15 731.336 1177.36 730.395 C 1182.73 713.898 1186.9 697.268 1192.09 680.873 z"/>
<path transform="translate(0,0)" fill="rgb(255,203,5)" d="M 1168.97 759.279 C 1173.89 760.461 1178.92 761.539 1183.87 762.697 C 1179.07 777.416 1172.82 797.368 1167.11 811.649 C 1162.5 810.662 1158.28 809.35 1153.72 808.231 L 1168.97 759.279 z"/>
<path transform="translate(0,0)" fill="rgb(255,203,5)" d="M 1443.51 946.952 C 1450.59 949.598 1462.1 986.724 1464.2 994.313 C 1460.1 995.4 1456.28 996.741 1452.23 997.915 C 1448.74 997.439 1448.77 994.15 1447.78 990.546 C 1444 976.79 1438.51 965.339 1431.69 952.969 C 1435.66 950.999 1439.53 948.897 1443.51 946.952 z"/>
<path transform="translate(0,0)" fill="rgb(255,203,5)" d="M 1367.8 638.787 C 1385.08 638.421 1402.37 638.428 1419.65 638.807 C 1419.57 643.519 1419.52 648.093 1419.37 652.813 C 1403.95 653.541 1383.65 653.047 1367.83 652.968 C 1367.74 648.242 1367.73 643.514 1367.8 638.787 z"/>
<path transform="translate(0,0)" fill="rgb(255,203,5)" d="M 1386.59 883.522 C 1399.48 889.98 1416.13 906.557 1425.86 917.414 C 1422.51 920.321 1419.29 923.258 1415.98 926.19 C 1415.83 926.241 1414.7 926.645 1414.59 926.515 C 1403.87 914.265 1390.18 904.632 1378.75 893.341 C 1381.45 890.065 1383.93 886.792 1386.59 883.522 z"/>
<path transform="translate(0,0)" fill="rgb(255,203,5)" d="M 1286.12 638.898 C 1303.13 638.414 1321.67 638.633 1338.77 638.875 C 1338.78 643.528 1338.76 648.181 1338.68 652.834 L 1286.08 652.921 C 1286.06 648.247 1286.07 643.572 1286.12 638.898 z"/>
<path transform="translate(0,0)" fill="rgb(255,203,5)" d="M 1186.62 846.454 C 1189.94 846.124 1191.14 858.453 1191.81 861.458 C 1176.67 863.338 1162.76 865.049 1147.79 868.475 C 1147.24 868.502 1143.4 869.036 1143.22 868.397 C 1142.22 864.93 1144.13 857.752 1144.88 854.414 L 1145.27 852.63 C 1158.81 850.375 1173.01 847.925 1186.62 846.454 z"/>
<path transform="translate(0,0)" fill="rgb(255,203,5)" d="M 1454.7 1029.1 L 1468.35 1029.09 C 1468.68 1045.3 1468.97 1064.76 1465.82 1080.65 C 1463.49 1080.75 1455.39 1079.22 1452.11 1078.82 C 1453.96 1061.13 1454.31 1046.87 1454.7 1029.1 z"/>
<path transform="translate(0,0)" fill="rgb(0,39,76)" d="M 492.327 637.857 C 492.398 621.936 490.32 585.116 494.882 572.127 C 498.27 562.481 565.573 565.819 576.304 565.863 L 694.769 565.882 L 893.633 565.707 C 907.916 565.723 1000.55 563.634 1007.56 569.679 C 1016.54 585.174 1012.38 650.751 1012.23 671.327 C 1012.2 674.582 996.31 712.377 993.782 718.449 C 981.127 748.794 968.317 779.074 955.353 809.287 C 908.621 921.909 860.896 1034.12 812.183 1145.89 C 804.561 1163.56 764.134 1259.64 756.329 1268.18 C 744.677 1272.99 660.285 1271 642.107 1270.97 C 637.633 1271.48 634.269 1271.34 629.812 1271.09 C 613.802 1270.83 518.237 1272.29 510.375 1268.78 C 510.987 1257.67 555.219 1171.84 563.625 1154.63 C 603.323 1072.34 643.624 990.335 684.524 908.632 C 703.201 871.31 721.538 833.819 739.532 796.163 C 748.925 776.87 760.028 755.87 768.538 736.365 L 586.871 736.165 L 537.698 736.235 C 492.964 736.343 492.486 739.57 492.573 694.059 L 492.428 652.61 C 491.974 647.66 492.073 642.816 492.327 637.857 z"/>
<path transform="translate(0,0)" fill="rgb(255,203,5)" d="M 649.172 1222.47 C 653.399 1224.42 657.665 1226.29 661.966 1228.07 C 657.018 1238.81 644.94 1260.98 642.107 1270.97 C 637.633 1271.48 634.269 1271.34 629.812 1271.09 C 628.074 1267.89 627.731 1267.03 629.552 1263.31 C 636.233 1249.67 643.132 1236.44 649.172 1222.47 z"/>
<path transform="translate(0,0)" fill="rgb(255,203,5)" d="M 492.327 637.857 C 498.455 638.528 511.175 638.079 518.156 638.279 C 518.254 643.164 518.291 648.05 518.268 652.936 C 509.582 652.915 501.116 652.935 492.428 652.61 C 491.974 647.66 492.073 642.816 492.327 637.857 z"/>
<path transform="translate(0,0)" fill="rgb(255,203,5)" d="M 629.391 638.489 L 679.423 638.266 C 679.39 643.133 681.669 652.852 676.25 652.983 C 659.745 653.073 643.239 653.065 626.734 652.959 C 626.339 648.212 623.654 639.027 629.391 638.489 z"/>
<path transform="translate(0,0)" fill="rgb(255,203,5)" d="M 546.111 638.323 C 563.254 637.905 581.648 638.317 598.824 638.8 L 598.829 652.991 L 545.981 652.877 C 545.951 648 545.904 643.2 546.111 638.323 z"/>
<path transform="translate(0,0)" fill="rgb(255,203,5)" d="M 788.878 638.474 C 806.055 638.194 823.235 638.155 840.413 638.356 C 840.343 642.474 840.684 649.1 839.773 652.859 L 787.779 652.911 C 787.758 648.88 786.946 641.496 788.878 638.474 z"/>
<path transform="translate(0,0)" fill="rgb(255,203,5)" d="M 709.623 638.45 C 726.395 638.3 743.168 638.381 759.937 638.694 C 759.941 642.091 760.966 650.744 758.715 652.88 C 741.744 652.969 724.773 652.913 707.803 652.714 C 707.766 649.146 706.335 640.113 709.623 638.45 z"/>
<path transform="translate(0,0)" fill="rgb(255,203,5)" d="M 868.096 638.795 C 885.539 638.57 902.984 638.616 920.425 638.933 C 920.421 643.811 920.409 648.163 920.246 653.053 L 868.106 652.969 C 868.074 648.245 868.071 643.52 868.096 638.795 z"/>
<path transform="translate(0,0)" fill="rgb(255,203,5)" d="M 884.364 676.54 C 889.969 677.435 893.42 678.618 898.885 680.317 C 895.129 691.578 885.201 713.401 879.979 725.113 C 875.223 724.121 871.253 721.947 866.9 720.085 L 866.118 719.759 C 871.521 708.946 880.078 687.984 884.364 676.54 z"/>
<path transform="translate(0,0)" fill="rgb(255,203,5)" d="M 856.418 744.422 C 860.554 746.576 865.425 748.429 869.799 750.192 C 863.859 764.666 857.309 779.668 851.801 794.207 C 847.218 792.373 842.963 791.212 837.954 789.128 C 843.644 774.031 850.459 759.356 856.418 744.422 z"/>
<path transform="translate(0,0)" fill="rgb(255,203,5)" d="M 772.287 950.59 C 776.339 953.099 780.161 954.609 784.356 956.814 C 779.407 970.476 772.487 987.516 765.382 1000.24 C 760.672 998.463 756.563 996.634 751.704 995.082 C 758.889 980.365 765.098 965.418 772.287 950.59 z"/>
<path transform="translate(0,0)" fill="rgb(255,203,5)" d="M 712.199 1087.78 C 716.285 1089.82 720.842 1091.44 725.096 1093.37 C 720.361 1104.47 710.623 1126.05 705.074 1136.84 C 700.328 1135.02 696.645 1133.42 692.103 1131.16 C 696.333 1120.48 705.94 1099.68 711.32 1089.47 L 712.199 1087.78 z"/>
<path transform="translate(0,0)" fill="rgb(255,203,5)" d="M 742.001 1020.36 C 745.941 1022 750.545 1024.44 754.756 1026.26 C 748.726 1039.92 743.047 1054.11 736.744 1067.62 L 735.929 1069.41 C 731.796 1067.38 726.882 1065.52 722.561 1063.55 C 729.366 1049.08 734.931 1034.7 742.001 1020.36 z"/>
<path transform="translate(0,0)" fill="rgb(255,203,5)" d="M 828.217 814.775 C 831.823 816.486 835.668 817.605 839.401 819.314 L 841.192 820.096 L 823.284 863.83 L 821.938 863.336 C 817.736 861.748 813.973 860.335 809.886 858.467 C 814.469 846.066 822.748 826.851 828.217 814.775 z"/>
<path transform="translate(0,0)" fill="rgb(255,203,5)" d="M 800.373 882.705 C 804.644 884.889 808.293 885.96 813.216 888.62 C 813.053 889.032 812.89 889.443 812.727 889.854 C 807.157 904.163 800.752 918.132 793.544 931.689 C 789.837 930.58 785.106 928.547 781.177 927.188 C 787.684 912.407 794.083 897.579 800.373 882.705 z"/>
<path transform="translate(0,0)" fill="rgb(255,203,5)" d="M 680.883 1155.77 C 685.03 1157.56 689.659 1159.18 693.914 1160.86 C 686.908 1175.05 680.248 1189.4 673.939 1203.91 C 668.634 1202.34 666.131 1201.38 661.036 1199.09 C 666.498 1186.03 674.536 1168.48 680.883 1155.77 z"/>
<path transform="translate(0,0)" fill="rgb(0,39,76)" d="M 1153.37 1386.86 C 1181.28 1385.38 1205.21 1406.55 1207.16 1434.43 C 1209.12 1462.3 1188.36 1486.6 1160.52 1489.03 C 1142.09 1490.64 1124.21 1482.18 1113.78 1466.89 C 1103.34 1451.61 1101.96 1431.88 1110.16 1415.29 C 1118.37 1398.7 1134.89 1387.83 1153.37 1386.86 z"/>
<path transform="translate(0,0)" fill="rgb(255,255,255)" d="M 1153.15 1403.92 C 1171.95 1402.36 1188.43 1416.39 1189.91 1435.2 C 1191.39 1454.01 1177.3 1470.44 1158.48 1471.84 C 1139.77 1473.24 1123.46 1459.24 1121.99 1440.54 C 1120.52 1421.83 1134.45 1405.46 1153.15 1403.92 z"/>
<path transform="translate(0,0)" fill="rgb(0,39,76)" d="M 501.826 1390.46 C 521.125 1390.33 549.826 1387.63 565.134 1400.81 C 586.635 1419.32 585.731 1452.5 567.919 1473.33 C 547.566 1489.86 527.805 1486.08 501.87 1486.16 L 501.785 1423.58 C 501.763 1414.11 501.176 1399.39 501.826 1390.46 z"/>
<path transform="translate(0,0)" fill="rgb(255,255,255)" d="M 518.071 1406.45 C 549.629 1404.85 571.408 1414.94 562.14 1451.51 C 561.068 1455.74 558.324 1459.12 555.52 1462.35 C 543.127 1471.7 533.234 1470.36 518.062 1470.24 C 517.951 1452.03 517.102 1424.13 518.071 1406.45 z"/>
<path transform="translate(0,0)" fill="rgb(0,39,76)" d="M 1241.59 1390.28 C 1255.67 1390.18 1275.39 1388.99 1288.59 1392.46 C 1304.53 1396.66 1309.45 1417.14 1303.7 1430.98 C 1300.12 1439.6 1294.82 1442.3 1286.76 1445.9 C 1294.26 1459.02 1301.5 1473.41 1309.24 1486.13 C 1302.57 1486.31 1296.39 1486.47 1289.69 1486.13 C 1283.18 1474.23 1276.46 1460.24 1270.44 1447.92 C 1266.22 1447.86 1261.99 1447.84 1257.77 1447.84 L 1257.83 1486.28 C 1252.26 1486.3 1246.69 1486.29 1241.11 1486.23 C 1241.03 1455.49 1240.86 1420.97 1241.59 1390.28 z"/>
<path transform="translate(0,0)" fill="rgb(255,255,255)" d="M 1257.95 1406.78 C 1264.13 1406.65 1280.1 1405.57 1284.83 1409.24 C 1291.29 1414.27 1289.6 1422.36 1285.34 1428.46 C 1275.05 1434.29 1270.06 1432.75 1257.99 1432.74 C 1257.93 1424.09 1257.91 1415.43 1257.95 1406.78 z"/>
<path transform="translate(0,0)" fill="rgb(0,39,76)" d="M 617.001 1390.52 C 624.821 1390.52 632.778 1390.66 640.544 1390.63 C 654.951 1390.53 670.778 1390.34 677.882 1405.55 C 682.981 1416.46 681.631 1431.53 672.505 1440.05 C 669.717 1442.65 665.695 1444 662.273 1445.63 C 668.81 1459.14 676.875 1471.89 683.438 1485.92 C 679.319 1485.95 667.827 1486.82 664.961 1485.16 C 657.672 1472.16 652.473 1461.13 645.774 1447.9 C 641.564 1447.82 637.353 1447.83 633.144 1447.94 C 633.202 1460.82 633.189 1473.7 633.105 1486.58 C 627.714 1486.65 622.321 1486.61 616.931 1486.46 L 617.001 1390.52 z"/>
<path transform="translate(0,0)" fill="rgb(255,255,255)" d="M 633.96 1406.12 C 643.428 1405.86 662.84 1403.59 663.618 1417.51 C 663.911 1422.76 662.477 1425.38 659.213 1429.25 C 650.173 1434.32 644.26 1432.88 633.547 1432.79 C 633.332 1424.08 633.071 1414.76 633.96 1406.12 z"/>
<path transform="translate(0,0)" fill="rgb(0,39,76)" d="M 883.803 1390.47 C 901.667 1390.48 920.123 1390.38 937.943 1390.69 L 937.904 1405.83 C 925.066 1405.98 912.226 1406.01 899.387 1405.92 C 899.291 1413.64 899.32 1421.35 899.472 1429.07 L 935.07 1429.02 L 935.029 1443.99 C 930.17 1444.05 906.386 1443.73 900.408 1444.59 C 899.674 1444.69 899.811 1448.63 899.816 1449.75 L 899.871 1471.03 L 937.974 1471.04 L 937.922 1485.92 C 919.78 1486.15 901.373 1485.99 883.203 1486.01 C 883.064 1476.1 882.242 1394.47 883.803 1390.47 z"/>
<path transform="translate(0,0)" fill="rgb(0,39,76)" d="M 1494.42 1390.03 C 1508.96 1390.02 1523.5 1390.1 1538.04 1390.25 C 1538.02 1394.94 1537.97 1399.63 1537.89 1404.31 C 1527.12 1404.83 1516.05 1404.31 1505.53 1405.06 C 1505.06 1410.46 1504.95 1414.65 1504.82 1420.1 C 1517.24 1420.94 1525.28 1420.49 1533.74 1431.21 C 1545.89 1446.61 1542.96 1470.97 1526.9 1482.46 C 1517.71 1489.04 1506.75 1488.53 1496.36 1486.57 C 1484.33 1481.71 1480.97 1476.57 1475.81 1465.28 C 1480.78 1462.42 1483.3 1461.17 1488.56 1459 C 1495.78 1469.37 1502.97 1477.09 1517.57 1469.56 C 1530.98 1461.32 1527.2 1438.11 1511.51 1435.01 C 1500.57 1432.85 1493.89 1435.35 1484.84 1440.9 C 1487.75 1424.74 1491.98 1405.79 1494.42 1390.03 z"/>
<path transform="translate(0,0)" fill="rgb(0,39,76)" d="M 763.114 1390.15 C 769.111 1390.06 775.11 1390.05 781.108 1390.11 C 786.6 1405.56 799.953 1435.79 807.137 1451.43 C 815.489 1433.23 824.214 1409.11 831.553 1390.15 C 837.565 1390.06 843.579 1390.06 849.591 1390.18 C 845.637 1399.5 842.178 1408.88 837.967 1418.25 C 827.869 1441.3 818.958 1464.79 809.017 1487.74 C 806.651 1488.39 805.019 1488.38 804.099 1485.99 C 791.657 1453.69 777.087 1421.84 763.114 1390.15 z"/>
<path transform="translate(0,0)" fill="rgb(0,39,76)" d="M 1023.34 1390.4 C 1041.8 1390.3 1060.27 1390.32 1078.73 1390.46 C 1078.73 1395.61 1078.69 1400.77 1078.63 1405.93 L 1040.2 1405.99 C 1040.13 1413.68 1040.13 1421.38 1040.21 1429.08 L 1076.09 1429.07 C 1076.07 1432.79 1077.52 1442.73 1073.99 1443.97 L 1039.87 1443.99 L 1039.9 1486.18 L 1023.1 1486.25 C 1022.95 1455.05 1022.68 1421.52 1023.34 1390.4 z"/>
<path transform="translate(0,0)" fill="rgb(0,39,76)" d="M 1388.53 1390.48 C 1410.36 1390.5 1433.66 1390.09 1455.34 1390.69 C 1441.61 1421.19 1425.35 1453.08 1412.49 1483.77 C 1409.77 1488.1 1398.18 1486.06 1392.84 1485.97 C 1404.71 1459.75 1420.4 1431.01 1431.32 1405.02 C 1416.41 1404.91 1401.49 1404.9 1386.58 1405 C 1386.61 1401.44 1385.34 1392.05 1388.53 1390.48 z"/>
<path transform="translate(0,0)" fill="rgb(0,39,76)" d="M 715.106 1390.16 C 720.422 1390.09 725.738 1390.07 731.053 1390.1 C 731.43 1422.16 731.432 1454.22 731.058 1486.28 C 725.744 1486.32 720.43 1486.31 715.116 1486.23 C 714.862 1454.65 714.769 1421.69 715.106 1390.16 z"/>
</svg>